<?xml version="1.0" encoding="UTF-8"?>
<svg xmlns="http://www.w3.org/2000/svg" xmlns:xlink="http://www.w3.org/1999/xlink" width="24px" height="24px" viewBox="0 0 24 24" version="1.1">
<g id="surface1">
<path style=" stroke:none;fill-rule:nonzero;fill:rgb(0%,0%,0%);fill-opacity:1;" d="M 12 6 C 12.414062 6 12.75 6.335938 12.75 6.75 L 12.75 11.25 L 17.25 11.25 C 17.664062 11.25 18 11.585938 18 12 C 18 12.414062 17.664062 12.75 17.25 12.75 L 12.75 12.75 L 12.75 17.25 C 12.75 17.664062 12.414062 18 12 18 C 11.585938 18 11.25 17.664062 11.25 17.25 L 11.25 12.75 L 6.75 12.75 C 6.335938 12.75 6 12.414062 6 12 C 6 11.585938 6.335938 11.25 6.75 11.25 L 11.25 11.25 L 11.25 6.75 C 11.25 6.335938 11.585938 6 12 6 Z M 12 6 "/>
</g>
</svg>
